<?xml version="1.0" encoding="utf-8"?>
<!-- Generator: Adobe Illustrator 21.0.0, SVG Export Plug-In . SVG Version: 6.00 Build 0)  -->
<svg version="1.1" id="Capa_1" xmlns="http://www.w3.org/2000/svg" xmlns:xlink="http://www.w3.org/1999/xlink" x="0px" y="0px"
	 viewBox="0 0 557.7 84.8" style="enable-background:new 0 0 557.7 84.8;" xml:space="preserve">
<style type="text/css">
	.st0{opacity:0.4;}
	.st1{fill:#FFFFFF;}
	.st2{fill:none;}
</style>
<g>
	<g class="st0">
		<g>
			<path class="st1" d="M38.5,62.2c0.2,4.6,1.9,8.8,4.8,12h-37c-3.3,0-6-2.7-6-6V6.4c0-3.3,2.7-6,6-6s6,2.7,6,6v55.8H38.5z"/>
		</g>
		<g>
			<g>
				<path class="st1" d="M84.6,58.5v9.7c0,3.3-2.7,6-6,6h-5.7c1.5-1.8,2.7-3.8,3.6-6c0.7-1.9,1.1-3.9,1.2-6c0-0.3,0-0.5,0-0.8
					c0-1-0.1-2-0.2-2.9C77.5,58.5,84.6,58.5,84.6,58.5z"/>
			</g>
			<g>
				<g>
					<rect x="6.3" y="0.4" class="st1" width="12.5" height="12"/>
				</g>
			</g>
			<g>
				<g>
					<rect x="29.3" y="0.4" class="st1" width="26.3" height="12"/>
				</g>
			</g>
			<g>
				<g>
					<path class="st1" d="M84.6,18.9h-12v-6.5h-6.5v-12h12.5c3.3,0,6,2.7,6,6V18.9z"/>
				</g>
			</g>
			<g>
				<g>
					<polygon class="st1" points="84.6,48 72.3,48 72.6,29.4 84.6,29.4 					"/>
				</g>
			</g>
		</g>
	</g>
	<g>
		<g>
			<g>
				<line class="st2" x1="78.6" y1="6.4" x2="67.3" y2="44.1"/>
			</g>
			<g>
				<path class="st1" d="M84.3,8.1L72.3,48c-1.5-1.6-3.2-2.9-5.1-3.9c-1.8-0.9-3.7-1.6-5.7-2L72.8,4.7c0.9-3.2,4.3-5,7.5-4
					C83.5,1.6,85.3,5,84.3,8.1z"/>
			</g>
		</g>
		<g>
			<g>
				<g>
					<g>
						<g>
							<path class="st1" d="M59.1,47.5L47.3,19.7c-0.9-2.1-3-3.6-5.3-3.7s-4.5,1.2-5.6,3.2l-6.5,12.5l-5.3,10.1l-8.3-24.7L12,4.5
								c-1.1-3.1-4.5-4.8-7.6-3.8s-4.8,4.5-3.8,7.6l17.2,50.8c0.8,2.3,2.8,3.9,5.2,4c2.4,0.2,4.7-1.1,5.8-3.2l9.8-18.8l2.6-5
								l5.9,14.1l0.7,1.7c-2.3,2.5-3.7,5.8-3.7,9.5c0,7.7,6.2,13.9,13.9,13.9s13.9-6.2,13.9-13.9C71.9,54.1,66.2,48.1,59.1,47.5z
								 M58,66.3c-2.7,0-4.9-2.2-4.9-4.9c0-1.3,0.5-2.5,1.3-3.4c0.5-0.6,1.2-1,2-1.3c0.5-0.2,1-0.3,1.6-0.3c2.7,0,4.9,2.2,4.9,4.9
								C62.9,64.1,60.7,66.3,58,66.3z"/>
						</g>
					</g>
				</g>
			</g>
		</g>
	</g>
	<g>
		<g>
			<path class="st1" d="M132,28.9c-1.9-3.4-4.7-6.1-8.1-7.9s-7.3-2.7-11.6-2.7s-8.2,0.9-11.5,2.7c-3.4,1.8-6.1,4.5-8.1,7.9
				s-3,7.5-3,12.1s1,8.7,3,12.1c2,3.5,4.7,6.1,8.1,8c3.4,1.8,7.3,2.7,11.5,2.7c4.3,0,8.2-0.9,11.6-2.7s6.2-4.5,8.1-7.9
				s2.9-7.5,2.9-12.2C134.9,36.4,133.9,32.3,132,28.9z M118.6,53.6c-1.9,1-4,1.5-6.3,1.5s-4.4-0.5-6.2-1.5c-1.9-1-3.4-2.6-4.6-4.7
				c-1.2-2.1-1.7-4.8-1.7-7.9c0-3.1,0.6-5.7,1.7-7.9c1.1-2.1,2.7-3.7,4.6-4.7s4-1.5,6.2-1.5s4.3,0.5,6.3,1.5c1.9,1,3.4,2.6,4.6,4.7
				c1.1,2.1,1.7,4.8,1.7,7.9c0,3.2-0.6,5.8-1.7,7.9C122,51,120.5,52.6,118.6,53.6z"/>
		</g>
		<g>
			<path class="st1" d="M167.1,18.1v10.6H164c-3.9,0-7,0.9-9.3,2.8c-2.3,1.8-3.5,5-3.5,9.3v22.5h-9.8V18.8h9.8v7.5
				c1.5-2.3,3.4-4.2,5.8-5.7c1.4-0.8,2.9-1.5,4.5-1.9s3.3-0.6,5.2-0.6H167.1z"/>
		</g>
		<g>
			<path class="st1" d="M205.9,51.1c0,3.8-1.4,6.8-4.3,9.2c-2.8,2.3-6.7,3.5-11.5,3.5c-5.5,0-10-1.3-13.4-3.9
				c-3.4-2.6-5.5-6.3-6.2-10.9l-0.1-0.4h9.6v0.3c0.3,2.3,1.3,4.1,3,5.5c1.8,1.4,4.1,2.1,7.1,2.1c2.1,0,3.7-0.5,4.9-1.6
				s1.7-2.4,1.7-4c0-1.4-0.4-2.5-1.3-3.4c-0.9-0.9-2.1-1.5-3.4-2c-1.4-0.5-3.4-1-5.8-1.5c-3.2-0.7-5.8-1.5-7.8-2.2
				c-2-0.8-3.8-2-5.2-3.7c-1.5-1.7-2.2-4.1-2.2-7c0-3.8,1.4-6.9,4.3-9.3c2.8-2.4,6.8-3.5,11.8-3.5c5.2,0,9.4,1.4,12.6,4
				c1.6,1.3,2.8,2.9,3.8,4.7c1,1.8,1.6,3.8,2,6l0.1,0.4h-9.3v-0.3c-0.3-2.3-1.3-4.1-2.9-5.5c-1.6-1.4-3.7-2.1-6.4-2.1
				c-2.2,0-3.9,0.5-5,1.5c-1.2,1-1.7,2.4-1.7,4.1c0,1.3,0.4,2.3,1.2,3c0.9,0.8,2,1.5,3.2,1.9c1.3,0.5,3.3,1,5.7,1.6
				c3.3,0.7,6,1.5,8,2.3c2.1,0.8,3.9,2.1,5.4,3.9C205.1,45.7,205.9,48.1,205.9,51.1z"/>
		</g>
		<g>
			<path class="st1" d="M235.2,54.7v8.6h-5.9c-4.7,0-8.4-1.2-10.8-3.5c-2.5-2.3-3.7-6.2-3.7-11.5v-21h-6.3v-8.4h6.3v-11h9.9v10.9
				h10.5v8.4h-10.5v21.2c0,2.4,0.4,4,1.3,4.9c0.9,0.9,2.4,1.3,4.6,1.3L235.2,54.7L235.2,54.7z"/>
		</g>
		<g>
			<polygon class="st1" points="246.4,9 246.4,33.8 269.7,33.8 269.7,36.2 246.4,36.2 246.4,61 272.1,61 272.1,63.4 243.8,63.4 
				243.8,6.6 272.1,6.6 272.1,9 			"/>
		</g>
		<g>
			<path class="st1" d="M319.5,29.5c-1.8-3.4-4.3-6-7.6-7.8c-3.2-1.8-7-2.7-11.1-2.7c-5,0-9.3,1.4-12.8,4.1c-2.7,2.1-4.7,4.7-6,7.8
				V19.6h-2.5v64h2.5V52.1c1.3,3.1,3.3,5.7,6,7.8c3.5,2.7,7.8,4.1,12.8,4.1c4.1,0,7.9-0.9,11.1-2.7c3.3-1.8,5.8-4.4,7.6-7.8
				c1.8-3.4,2.7-7.4,2.7-11.9C322.1,36.9,321.2,32.9,319.5,29.5z M300.8,61.5c-3.6,0-6.9-0.8-9.7-2.5c-2.8-1.7-5.1-4-6.7-7
				s-2.4-6.5-2.4-10.5s0.8-7.5,2.4-10.5s3.9-5.4,6.7-7c2.8-1.7,6.1-2.5,9.7-2.5c3.8,0,7.1,0.8,9.9,2.4s5,3.9,6.5,6.9
				s2.3,6.6,2.3,10.8s-0.8,7.7-2.3,10.8c-1.5,3-3.7,5.3-6.5,6.9C307.9,60.7,304.6,61.5,300.8,61.5z"/>
		</g>
		<g>
			<rect x="330.7" y="19.6" class="st1" width="2.6" height="43.8"/>
			<path class="st1" d="M334.6,7c0,0.8-0.3,1.4-0.7,1.9c-0.5,0.5-1.1,0.7-1.8,0.7c-0.7,0-1.3-0.3-1.8-0.7c-0.5-0.5-0.7-1.1-0.7-1.9
				s0.3-1.4,0.7-1.9s1.1-0.7,1.8-0.7c0.7,0,1.3,0.3,1.8,0.7S334.6,6.2,334.6,7z"/>
		</g>
		<g>
			<path class="st1" d="M371.9,52.3c0,3.4-1.2,6.2-3.6,8.4c-2.4,2.1-5.5,3.2-9.3,3.2c-4.6,0-8.5-1.2-11.5-3.6
				c-3-2.4-4.8-5.8-5.3-9.9l-0.1-0.6h2.6v0.5c0.3,3.2,1.7,5.9,4.2,8s5.9,3.2,10.2,3.2c3.2,0,5.8-0.9,7.6-2.6
				c1.8-1.7,2.7-3.9,2.7-6.6c0-2.1-0.5-3.9-1.6-5.1c-1.1-1.3-2.5-2.2-4.2-2.9s-4-1.3-6.8-1.9c-3-0.7-5.5-1.4-7.3-2.1
				c-1.9-0.7-3.5-1.9-4.8-3.4s-2-3.7-2-6.3c0-3.5,1.3-6.4,3.8-8.5s5.7-3.1,9.8-3.1c4.3,0,7.9,1.2,10.6,3.6c1.4,1.2,2.5,2.6,3.3,4.3
				c0.8,1.7,1.3,3.5,1.6,5.6l0.1,0.5h-2.6v-0.4c-0.4-3.1-1.6-5.8-3.8-8c-2.2-2.1-5.2-3.2-9.1-3.2c-3.4,0-6.1,0.9-8,2.5
				c-1.9,1.7-2.9,3.9-2.9,6.6c0,2,0.5,3.6,1.6,4.8s2.4,2.1,4,2.6c1.6,0.6,3.9,1.3,6.7,1.9c3.1,0.7,5.7,1.5,7.5,2.2
				c1.9,0.7,3.6,1.9,4.9,3.6C371.2,47.4,371.9,49.6,371.9,52.3z"/>
		</g>
		<g>
			<path class="st1" d="M418.3,29.5c-1.8-3.4-4.4-6-7.7-7.8c-3.2-1.8-6.9-2.7-10.9-2.7s-7.7,0.9-11,2.7c-3.2,1.8-5.8,4.4-7.7,7.8
				c-1.9,3.4-2.8,7.4-2.8,11.9s0.9,8.6,2.8,11.9c1.9,3.4,4.5,6,7.7,7.8s6.9,2.7,11,2.7c4,0,7.7-0.9,10.9-2.7
				c3.2-1.8,5.8-4.4,7.7-7.8c1.8-3.4,2.8-7.4,2.8-11.9C421,36.9,420.1,32.9,418.3,29.5z M399.7,61.5c-3.3,0-6.5-0.8-9.3-2.2
				c-2.8-1.5-5.2-3.7-6.9-6.7c-1.8-3-2.6-6.7-2.6-11.1s0.9-8.1,2.6-11.1s4.1-5.3,6.9-6.7c2.8-1.5,6-2.2,9.3-2.2s6.5,0.7,9.3,2.2
				s5.1,3.7,6.8,6.7c1.8,3,2.6,6.7,2.6,11.2c0,4.4-0.9,8.2-2.6,11.2s-4,5.2-6.8,6.7C406.1,60.8,403,61.5,399.7,61.5z"/>
		</g>
		<g>
			<path class="st1" d="M468,3.7v27.2c-1.3-3.1-3.4-5.7-6.1-7.8c-3.5-2.7-7.8-4.1-12.8-4.1c-4.1,0-7.9,0.9-11.1,2.7
				c-3.3,1.8-5.8,4.4-7.6,7.8c-1.8,3.4-2.7,7.4-2.7,11.9s0.9,8.6,2.7,11.9c1.8,3.4,4.3,6,7.6,7.8c3.2,1.8,7,2.7,11.1,2.7
				c5,0,9.3-1.4,12.8-4.1c2.7-2.1,4.7-4.7,6.1-7.8v11.5h2.5V3.7H468z M449.2,61.5c-3.8,0-7.1-0.8-9.9-2.4c-2.8-1.6-5-3.9-6.5-6.9
				s-2.3-6.6-2.3-10.8s0.8-7.8,2.3-10.8s3.7-5.3,6.5-6.9s6.1-2.4,9.9-2.4c3.6,0,6.9,0.8,9.7,2.5c2.8,1.7,5.1,4,6.7,7
				s2.4,6.5,2.4,10.5s-0.8,7.5-2.4,10.5s-3.9,5.4-6.7,7C456,60.7,452.8,61.5,449.2,61.5z"/>
		</g>
		<g>
			<path class="st1" d="M518.2,47.9l-0.1,0.4c-0.3,2-1,3.9-1.9,5.5c-1,1.6-2.2,3-3.8,4.2c-3.2,2.3-7.2,3.5-11.8,3.5
				c-3.3,0-6.4-0.7-9.1-2.1c-2.8-1.4-5-3.6-6.7-6.4c-1.7-2.8-2.5-6.2-2.7-10.3h38.2l0.1-0.4c0.2-1.3,0.3-2.8,0.3-4.4
				c0-3.2-0.8-6.3-2.3-9.1c-1.5-2.9-3.8-5.2-6.9-7c-3-1.8-6.7-2.7-11-2.7c-4,0-7.7,0.9-10.9,2.7c-3.2,1.8-5.7,4.4-7.5,7.8
				s-2.7,7.4-2.7,12c0,4.5,0.9,8.6,2.7,12c1.8,3.4,4.4,6,7.5,7.8c3.2,1.8,6.8,2.7,10.9,2.7c5.5,0,10.1-1.4,13.7-4.3
				c3.5-2.8,5.7-6.6,6.5-11.2l0.1-0.6h-2.6L518.2,47.9L518.2,47.9z M500.5,21.4c3.2,0,6.3,0.7,9.1,2.1c2.8,1.4,5,3.6,6.6,6.4
				c1.5,2.8,2.2,6.2,2.1,10.3H482c0.1-4.1,1-7.5,2.7-10.3c1.7-2.9,4-5,6.7-6.4C494.2,22.1,497.2,21.4,500.5,21.4z"/>
		</g>
		<g>
			<path class="st1" d="M557.1,52.3c0,3.4-1.2,6.2-3.6,8.4c-2.4,2.1-5.5,3.2-9.3,3.2c-4.6,0-8.5-1.2-11.5-3.6
				c-3-2.4-4.8-5.8-5.3-9.9l-0.1-0.6h2.6v0.5c0.3,3.2,1.7,5.9,4.2,8s5.9,3.2,10.2,3.2c3.2,0,5.8-0.9,7.6-2.6
				c1.8-1.7,2.7-3.9,2.7-6.6c0-2.1-0.5-3.9-1.6-5.1c-1.1-1.3-2.5-2.2-4.2-2.9s-4-1.3-6.8-1.9c-3-0.7-5.5-1.4-7.3-2.1
				c-1.9-0.7-3.5-1.9-4.8-3.4s-2-3.7-2-6.3c0-3.5,1.3-6.4,3.8-8.5s5.7-3.1,9.8-3.1c4.3,0,7.9,1.2,10.6,3.6c1.4,1.2,2.5,2.6,3.3,4.3
				c0.8,1.7,1.3,3.5,1.6,5.6l0.1,0.5h-2.8v-0.4c-0.3-3.1-1.6-5.8-3.8-8c-2.2-2.1-5.2-3.2-9.1-3.2c-3.4,0-6.1,0.9-8,2.5
				c-1.9,1.7-2.9,3.9-2.9,6.6c0,2,0.5,3.6,1.6,4.8s2.4,2.1,4,2.6c1.6,0.6,3.9,1.3,6.7,1.9c3.1,0.7,5.6,1.5,7.5,2.2s3.6,1.9,4.9,3.6
				C556.5,47.4,557.1,49.6,557.1,52.3z"/>
		</g>
	</g>
</g>
</svg>
