<?xml version="1.0" encoding="utf-8"?>
<!-- Generator: Adobe Illustrator 21.0.0, SVG Export Plug-In . SVG Version: 6.00 Build 0)  -->
<svg version="1.1" id="Capa_1" xmlns="http://www.w3.org/2000/svg" xmlns:xlink="http://www.w3.org/1999/xlink" x="0px" y="0px"
	 viewBox="0 0 29.9 29.9" style="enable-background:new 0 0 29.9 29.9;" xml:space="preserve">
<style type="text/css">
	.st0{fill:#58595B;}
</style>
<g>
	<path class="st0" d="M15,10.1c2.7,0,4.9,2.2,4.9,4.9s-2.2,4.9-4.9,4.9c-2.7,0-4.9-2.2-4.9-4.9S12.3,10.1,15,10.1 M15,1.1
		C7.3,1.1,1.1,7.3,1.1,15S7.3,28.9,15,28.9c7.7,0,13.9-6.2,13.9-13.9S22.6,1.1,15,1.1L15,1.1z"/>
</g>
<g>
	<path d="M15,10.1c2.7,0,4.9,2.2,4.9,4.9s-2.2,4.9-4.9,4.9c-2.7,0-4.9-2.2-4.9-4.9S12.3,10.1,15,10.1 M15,1.1
		C7.3,1.1,1.1,7.3,1.1,15S7.3,28.9,15,28.9c7.7,0,13.9-6.2,13.9-13.9S22.6,1.1,15,1.1L15,1.1z"/>
</g>
</svg>
