<?xml version="1.0" encoding="utf-8"?>
<!-- Generator: Adobe Illustrator 21.0.0, SVG Export Plug-In . SVG Version: 6.00 Build 0)  -->
<svg version="1.1" id="Capa_1" xmlns="http://www.w3.org/2000/svg" xmlns:xlink="http://www.w3.org/1999/xlink" x="0px" y="0px"
	 viewBox="0 0 86.5 86.5" style="enable-background:new 0 0 86.5 86.5;" xml:space="preserve">
<style type="text/css">
	.st0{opacity:0.4;}
	.st1{fill:#FFFFFF;}
	.st2{fill:none;}
</style>
<g class="st0">
	<g>
		<path class="st1" d="M39.2,67.6c0.2,4.6,1.9,8.8,4.8,12H7c-3.3,0-6-2.7-6-6V11.8c0-3.3,2.7-6,6-6s6,2.7,6,6v55.8H39.2z"/>
	</g>
	<g>
		<g>
			<path class="st1" d="M85.3,63.9v9.7c0,3.3-2.7,6-6,6h-5.7c1.5-1.8,2.7-3.8,3.6-6c0.7-1.9,1.1-3.9,1.2-6c0-0.3,0-0.5,0-0.8
				c0-1-0.1-2-0.2-2.9C78.2,63.9,85.3,63.9,85.3,63.9z"/>
		</g>
		<g>
			<g>
				<rect x="7" y="5.8" class="st1" width="12.5" height="12"/>
			</g>
		</g>
		<g>
			<g>
				<rect x="30" y="5.8" class="st1" width="26.3" height="12"/>
			</g>
		</g>
		<g>
			<g>
				<path class="st1" d="M85.3,24.3h-12v-6.5h-6.5v-12h12.5c3.3,0,6,2.7,6,6V24.3z"/>
			</g>
		</g>
		<g>
			<g>
				<polygon class="st1" points="85.3,53.4 73,53.4 73.3,34.8 85.3,34.8 				"/>
			</g>
		</g>
	</g>
</g>
<g>
	<g>
		<g>
			<line class="st2" x1="79.3" y1="11.8" x2="68" y2="49.5"/>
		</g>
		<g>
			<path class="st1" d="M85,13.5L73,53.4c-1.5-1.6-3.2-2.9-5.1-3.9c-1.8-0.9-3.7-1.6-5.7-2l11.3-37.4c0.9-3.2,4.3-5,7.5-4
				C84.2,7,86,10.4,85,13.5z"/>
		</g>
	</g>
	<g>
		<g>
			<g>
				<g>
					<g>
						<path class="st1" d="M59.8,52.9L48,25.1c-0.9-2.1-3-3.6-5.3-3.7s-4.5,1.2-5.6,3.2l-6.5,12.5l-5.3,10.1L17,22.5L12.7,9.9
							c-1.1-3.1-4.5-4.8-7.6-3.8s-4.8,4.5-3.8,7.6l17.2,50.8c0.8,2.3,2.8,3.9,5.2,4c2.4,0.2,4.7-1.1,5.8-3.2l9.8-18.8l2.6-5
							l5.9,14.1l0.7,1.7c-2.3,2.5-3.7,5.8-3.7,9.5c0,7.7,6.2,13.9,13.9,13.9s13.9-6.2,13.9-13.9C72.6,59.5,66.9,53.5,59.8,52.9z
							 M58.7,71.7c-2.7,0-4.9-2.2-4.9-4.9c0-1.3,0.5-2.5,1.3-3.4c0.5-0.6,1.2-1,2-1.3c0.5-0.2,1-0.3,1.6-0.3c2.7,0,4.9,2.2,4.9,4.9
							C63.6,69.5,61.4,71.7,58.7,71.7z"/>
					</g>
				</g>
			</g>
		</g>
	</g>
</g>
</svg>
