<?xml version="1.0" encoding="utf-8"?>
<!-- Generator: Adobe Illustrator 21.0.0, SVG Export Plug-In . SVG Version: 6.00 Build 0)  -->
<svg version="1.1" id="Capa_1" xmlns="http://www.w3.org/2000/svg" xmlns:xlink="http://www.w3.org/1999/xlink" x="0px" y="0px"
	 viewBox="0 0 86.5 86.5" style="enable-background:new 0 0 86.5 86.5;" xml:space="preserve">
<style type="text/css">
	.st0{opacity:0.4;}
	.st1{fill:#FFFFFF;}
	.st2{fill:none;}
	.st3{fill:none;stroke:#FFFFFF;stroke-width:8;stroke-miterlimit:10;}
	.st4{fill:#231F20;}
	.st5{fill:none;stroke:#FFFFFF;stroke-width:8;stroke-linecap:round;stroke-miterlimit:10;}
</style>
<g class="st0">
	<g>
		<path class="st1" d="M-125.5,67.6c0.2,4.6,1.9,8.8,4.8,12h-37c-3.3,0-6-2.7-6-6V11.8c0-3.3,2.7-6,6-6c3.3,0,6,2.7,6,6v55.8H-125.5
			z"/>
	</g>
	<g>
		<g>
			<path class="st1" d="M-79.4,63.9v9.7c0,3.3-2.7,6-6,6h-5.7c1.5-1.8,2.7-3.8,3.6-6c0.7-1.9,1.1-3.9,1.2-6c0-0.3,0-0.5,0-0.8
				c0-1-0.1-2-0.2-2.9C-86.5,63.9-79.4,63.9-79.4,63.9z"/>
		</g>
		<g>
			<g>
				<rect x="-157.7" y="5.8" class="st1" width="12.5" height="12"/>
			</g>
		</g>
		<g>
			<g>
				<rect x="-134.7" y="5.8" class="st1" width="26.3" height="12"/>
			</g>
		</g>
		<g>
			<g>
				<path class="st1" d="M-79.4,24.3h-12v-6.5h-6.5v-12h12.5c3.3,0,6,2.7,6,6V24.3z"/>
			</g>
		</g>
		<g>
			<g>
				<polygon class="st1" points="-79.4,53.4 -91.7,53.4 -91.4,34.8 -79.4,34.8 				"/>
			</g>
		</g>
	</g>
</g>
<g>
	<g>
		<g>
			<line class="st2" x1="-85.4" y1="11.8" x2="-96.7" y2="49.5"/>
		</g>
		<g>
			<path class="st1" d="M-79.7,13.5l-12,39.9c-1.5-1.6-3.2-2.9-5.1-3.9c-1.8-0.9-3.7-1.6-5.7-2l11.3-37.4c0.9-3.2,4.3-5,7.5-4
				C-80.5,7-78.7,10.4-79.7,13.5z"/>
		</g>
	</g>
	<g>
		<g>
			<g>
				<g>
					<g>
						<path class="st1" d="M-104.9,52.9l-11.8-27.8c-0.9-2.1-3-3.6-5.3-3.7c-2.3-0.1-4.5,1.2-5.6,3.2l-6.5,12.5l-5.3,10.1l-8.3-24.7
							L-152,9.9c-1.1-3.1-4.5-4.8-7.6-3.8s-4.8,4.5-3.8,7.6l17.2,50.8c0.8,2.3,2.8,3.9,5.2,4c2.4,0.2,4.7-1.1,5.8-3.2l9.8-18.8
							l2.6-5l5.9,14.1l0.7,1.7c-2.3,2.5-3.7,5.8-3.7,9.5c0,7.7,6.2,13.9,13.9,13.9s13.9-6.2,13.9-13.9
							C-92.1,59.5-97.8,53.5-104.9,52.9z M-106,71.7c-2.7,0-4.9-2.2-4.9-4.9c0-1.3,0.5-2.5,1.3-3.4c0.5-0.6,1.2-1,2-1.3
							c0.5-0.2,1-0.3,1.6-0.3c2.7,0,4.9,2.2,4.9,4.9C-101.1,69.5-103.3,71.7-106,71.7z"/>
					</g>
				</g>
			</g>
		</g>
	</g>
</g>
<circle class="st3" cx="161.9" cy="60.6" r="13.2"/>
<g>
	<path class="st4" d="M313.6,85.7c-13.8,0-25.1-11.3-25.1-25.1s11.3-25.1,25.1-25.1s25.1,11.3,25.1,25.1S327.4,85.7,313.6,85.7z
		 M313.6,43.6c-9.4,0-17.1,7.7-17.1,17.1s7.7,17.1,17.1,17.1s17.1-7.7,17.1-17.1S323,43.6,313.6,43.6z"/>
</g>
<line class="st5" x1="161.9" y1="47.5" x2="161.9" y2="39.6"/>
<line class="st5" x1="171.2" y1="51.3" x2="176.8" y2="45.7"/>
<path class="st5" d="M175,60.6"/>
<line class="st5" x1="171.2" y1="70" x2="176.8" y2="75.5"/>
<line class="st5" x1="161.9" y1="73.8" x2="161.9" y2="81.7"/>
<line class="st5" x1="152.6" y1="70" x2="147" y2="75.5"/>
<line class="st5" x1="152.6" y1="51.3" x2="147" y2="45.7"/>
<g>
	<path class="st1" d="M80.4,36.5l-6.2,0c-1.6,0-3.1-1-3.6-2.6c-0.4-1.2-0.9-2.3-1.4-3.4c-0.7-1.5-0.4-3.2,0.7-4.4l3.2-3.2
		c2.6-2.6,2.6-6.9,0-9.5c-2.6-2.6-6.9-2.6-9.5,0l-3.2,3.2c-1.2,1.2-2.9,1.4-4.4,0.7c-1.1-0.5-2.2-1-3.4-1.4c-1.6-0.5-2.6-2-2.6-3.6
		l0-6.2c0-1.1-0.5-2.2-1.3-2.9C43-1.7,36.5,2.2,36.5,7.7v4.5c0,1.6-1,3.1-2.6,3.6c-1.2,0.4-2.3,0.9-3.4,1.4
		c-1.5,0.7-3.3,0.5-4.4-0.7l-3.2-3.2c-2.6-2.6-6.9-2.6-9.5,0c-2.6,2.6-2.6,6.9,0,9.5l3.2,3.2c1.2,1.2,1.4,2.9,0.7,4.4
		c-0.5,1.1-1,2.2-1.4,3.4c-0.5,1.6-2,2.6-3.6,2.6l-6.2,0c-1.1,0-2.2,0.5-2.9,1.3C-1.7,43.5,2.2,50,7.7,50h4.5c1.6,0,3.1,1,3.6,2.6
		c0.4,1.2,0.9,2.3,1.4,3.4c0.7,1.5,0.5,3.3-0.7,4.4l-4.3,4.3c-0.8,0.8-1.2,1.8-1.1,2.8c0.2,5,3.6,7.6,7,7.6c1.7,0,3.5-0.7,4.8-2
		l3.2-3.2c1.2-1.2,2.9-1.4,4.4-0.7c1.1,0.5,2.2,1,3.4,1.4c1.6,0.5,2.6,2,2.6,3.6l0,6.2c0,1.1,0.5,2.2,1.3,2.9
		c5.7,4.9,12.2,0.9,12.2-4.5v-4.5c0-1.6,1.1-3.1,2.6-3.6c1.2-0.4,2.3-0.9,3.4-1.4c1.5-0.7,3.3-0.4,4.4,0.7l3.2,3.2
		c1.3,1.3,3,2,4.8,2c1.7,0,3.4-0.7,4.8-2c2.6-2.6,2.6-6.9,0-9.5l-3.2-3.2c-1.2-1.2-1.4-2.9-0.7-4.4c0.5-1.1,1-2.2,1.4-3.4
		c0.5-1.6,2-2.6,3.6-2.6h4.5c5.5,0,9.4-6.5,4.5-12.2C82.6,37,81.5,36.5,80.4,36.5z M53.9,55c-8.1,5.8-16.6,4.2-21.6-0.9
		c-2.8-2.8-4.5-6.7-4.5-10.9c0-4.3,1.7-8.1,4.5-10.9c2.8-2.8,6.7-4.5,10.9-4.5c12,0,20.9,13.8,11.6,26.4
		C54.6,54.5,54.3,54.8,53.9,55z"/>
</g>
<g>
	<path class="st4" d="M313.6,75.2c-2.2,0-4-1.8-4-4V60.6c0-2.2,1.8-4,4-4s4,1.8,4,4v10.6C317.6,73.4,315.8,75.2,313.6,75.2z"/>
</g>
<g>
	<path class="st4" d="M313.6,54.2c-1,0-2.1-0.4-2.8-1.2c-0.2-0.2-0.4-0.4-0.5-0.6c-0.2-0.2-0.3-0.5-0.4-0.7
		c-0.1-0.2-0.2-0.5-0.2-0.8c0-0.3-0.1-0.5-0.1-0.8s0-0.5,0.1-0.8c0.1-0.3,0.1-0.5,0.2-0.8c0.1-0.2,0.2-0.5,0.4-0.7
		c0.1-0.2,0.3-0.4,0.5-0.6c0.2-0.2,0.4-0.4,0.6-0.5c0.2-0.2,0.5-0.3,0.7-0.4c0.2-0.1,0.5-0.2,0.8-0.2c0.5-0.1,1-0.1,1.6,0
		c0.3,0,0.5,0.1,0.8,0.2c0.2,0.1,0.5,0.2,0.7,0.4c0.2,0.1,0.4,0.3,0.6,0.5c0.2,0.2,0.4,0.4,0.5,0.6c0.1,0.2,0.3,0.5,0.4,0.7
		s0.2,0.5,0.2,0.8c0,0.3,0.1,0.5,0.1,0.8s0,0.5-0.1,0.8c-0.1,0.3-0.1,0.5-0.2,0.8c-0.1,0.2-0.2,0.5-0.4,0.7
		c-0.1,0.2-0.3,0.4-0.5,0.6C315.7,53.8,314.7,54.2,313.6,54.2z"/>
</g>
<circle class="st3" cx="313.6" cy="-37.4" r="21.1"/>
<line class="st5" x1="313.6" y1="-26.8" x2="313.6" y2="-37.4"/>
<line class="st5" x1="313.6" y1="-47.8" x2="313.6" y2="-47.8"/>
</svg>
